<svg fill="{{ .fill }}" width="{{ .width }}" height="{{ .height }}" viewBox="0 0 72 72" version="1.1" xmlns="http://www.w3.org/2000/svg" xmlns:xlink="http://www.w3.org/1999/xlink">
    <g id="Page-1" stroke="none" stroke-width="1" fill="none" fill-rule="evenodd">
        <g id="Social-Icons---Rounded-Black">
            <g id="bluesky">
                <path d="M8,72 L64,72 C68.418278,72 72,68.418278 72,64 L72,8 C72,3.581722 68.418278,-8.11624501e-16 64,0 L8,0 C3.581722,8.11624501e-16 -5.41083001e-16,3.581722 0,8 L0,64 C5.41083001e-16,68.418278 3.581722,72 8,72 Z" id="Rounded" fill="{{ .fill }}"></path>
                <path d="M24.15,18.5c7.99,6.0 16.6,18.15 19.7,24.65 3.15-6.5 11.75-18.65 19.7-24.65 5.8-4.3 15.1-7.7 15.1,3.0 0,2.1 -1.2,17.9 -1.9,20.4 -2.5,8.9 -11.5,11.1 -19.6,9.8 14.1,2.4 17.7,10.3 9.9,18.3 -14.7,15.1 -21.1,-3.8 -22.8,-8.6 -0.3,-0.9 -0.4,-1.3 -0.4,-0.9 0,-0.4 -0.1,0.1 -0.4,0.9 -1.7,4.8 -8.1,23.7 -22.8,8.6 -7.7,-8.0 -4.2,-15.9 9.9,-18.3 -8.1,1.4 -17.1,-0.9 -19.6,-9.8 -0.7,-2.6 -1.9,-18.3 -1.9,-20.4 0,-10.7 9.3,-7.3 15.1,-3.0z" fill="#FFFFFF"></path>
            </g>
        </g>
    </g>
</svg>
