<svg fill="{{ .fill }}" width="{{ .width }}" height="{{ .height }}" viewBox="0 0 72 72" version="1.1" xmlns="http://www.w3.org/2000/svg" xmlns:xlink="http://www.w3.org/1999/xlink">
    <g id="Page-1" stroke="none" stroke-width="1" fill="none" fill-rule="evenodd">
        <g id="Social-Icons---Rounded-Black">
            <g id="bluesky">
                <path d="M8,72 L64,72 C68.418278,72 72,68.418278 72,64 L72,8 C72,3.581722 68.418278,-8.11624501e-16 64,0 L8,0 C3.581722,8.11624501e-16 -5.41083001e-16,3.581722 0,8 L0,64 C5.41083001e-16,68.418278 3.581722,72 8,72 Z" id="Rounded" fill="{{ .fill }}"></path>
                <path d="M24.7,20.5c6.8,5.1 14.1,15.4 16.8,20.9 2.7-5.5 10.0-15.8 16.8-20.9 4.9-3.7 12.8-6.5 12.8,2.5 0,1.8 -1.0,15.2 -1.6,17.4 -2.1,7.5 -9.8,9.4 -16.7,8.4 11.9,2.0 15.0,8.8 8.4,15.5 -12.4,12.8 -17.9,-3.2 -19.3,-7.3 -0.25,-0.75 -0.35,-1.1 -0.35,-0.75 0,-0.35 -0.1,0.0 -0.35,0.75 -1.4,4.1 -6.9,20.1 -19.3,7.3 -6.6,-6.7 -3.5,-13.5 8.4,-15.5 -6.9,1.2 -14.6,-0.9 -16.7,-8.4 -0.6,-2.2 -1.6,-15.6 -1.6,-17.4 0,-9.0 8.0,-6.2 12.8,-2.5z" fill="#FFFFFF"></path>
            </g>
        </g>
    </g>
</svg>
