<svg fill="{{ .fill }}" width="{{ .width }}" height="{{ .height }}" viewBox="0 0 72 72" version="1.1" xmlns="http://www.w3.org/2000/svg" xmlns:xlink="http://www.w3.org/1999/xlink">
    <g id="Page-1" stroke="none" stroke-width="1" fill="none" fill-rule="evenodd">
        <g id="Social-Icons---Rounded-Black">
            <g id="bluesky">
                <path d="M8,72 L64,72 C68.418278,72 72,68.418278 72,64 L72,8 C72,3.581722 68.418278,-8.11624501e-16 64,0 L8,0 C3.581722,8.11624501e-16 -5.41083001e-16,3.581722 0,8 L0,64 C5.41083001e-16,68.418278 3.581722,72 8,72 Z" id="Rounded" fill="{{ .fill }}"></path>
                <path d="M20.2,16.5c8.0,6.0 16.6,18.2 19.8,24.7 3.2-6.5 11.8-18.7 19.8-24.7 5.8-4.3 15.2-7.7 15.2,3.0 0,2.1 -1.2,18.0 -1.9,20.5 -2.5,8.9 -11.5,11.2 -19.7,9.9 14.1,2.4 17.7,10.4 9.9,18.4 -14.7,15.1 -21.2,-3.8 -22.8,-8.7 -0.3,-0.9 -0.4,-1.3 -0.4,-0.9 0,-0.4 -0.1,0.1 -0.4,0.9 -1.6,4.9 -8.1,23.8 -22.8,8.7 -7.8,-8.0 -4.2,-16.0 9.9,-18.4 -8.2,1.4 -17.2,-1.0 -19.7,-9.9 -0.7,-2.5 -1.9,-18.4 -1.9,-20.5 0,-10.7 9.4,-7.3 15.2,-3.0z" fill="#FFFFFF"></path>
            </g>
        </g>
    </g>
</svg>
